<svg width="34" height="34" viewBox="0 0 34 34" fill="none" xmlns="http://www.w3.org/2000/svg">
<path d="M24.083 4.24978C24.4551 3.8777 24.8968 3.58255 25.383 3.38118C25.8691 3.17981 26.3901 3.07617 26.9163 3.07617C27.4425 3.07617 27.9636 3.17981 28.4497 3.38118C28.9359 3.58255 29.3776 3.8777 29.7497 4.24978C30.1218 4.62186 30.4169 5.06358 30.6183 5.54972C30.8196 6.03587 30.9233 6.55691 30.9233 7.08311C30.9233 7.60931 30.8196 8.13035 30.6183 8.6165C30.4169 9.10264 30.1218 9.54437 29.7497 9.91644L10.6247 29.0414L2.83301 31.1664L4.95801 23.3748L24.083 4.24978Z" stroke="#FC573B" stroke-width="2" stroke-linecap="round" stroke-linejoin="round"/>
</svg>
