<svg width="25" height="25" viewBox="0 0 25 25" fill="none" xmlns="http://www.w3.org/2000/svg">
<path d="M11.458 4.16674H4.16634C3.61381 4.16674 3.0839 4.38623 2.6932 4.77693C2.3025 5.16763 2.08301 5.69754 2.08301 6.25007V20.8334C2.08301 21.3859 2.3025 21.9158 2.6932 22.3065C3.0839 22.6972 3.61381 22.9167 4.16634 22.9167H18.7497C19.3022 22.9167 19.8321 22.6972 20.2228 22.3065C20.6135 21.9158 20.833 21.3859 20.833 20.8334V13.5417M19.2705 2.60424C19.6849 2.18984 20.247 1.95703 20.833 1.95703C21.4191 1.95703 21.9811 2.18984 22.3955 2.60424C22.8099 3.01864 23.0427 3.58069 23.0427 4.16674C23.0427 4.75279 22.8099 5.31484 22.3955 5.72924L12.4997 15.6251L8.33301 16.6667L9.37467 12.5001L19.2705 2.60424Z" stroke="#FC573B" stroke-width="2" stroke-linecap="round" stroke-linejoin="round"/>
</svg>
