<svg width="39" height="39" viewBox="0 0 39 39" fill="none" xmlns="http://www.w3.org/2000/svg">
<path d="M8.125 34.125H30.875C32.6699 34.125 34.125 32.6699 34.125 30.875V8.125C34.125 6.33007 32.6699 4.875 30.875 4.875H8.125C6.33007 4.875 4.875 6.33007 4.875 8.125V30.875C4.875 32.6699 6.33007 34.125 8.125 34.125ZM8.125 34.125L26 16.25L34.125 24.375M16.25 13.8125C16.25 15.1587 15.1587 16.25 13.8125 16.25C12.4663 16.25 11.375 15.1587 11.375 13.8125C11.375 12.4663 12.4663 11.375 13.8125 11.375C15.1587 11.375 16.25 12.4663 16.25 13.8125Z" stroke="#FA5F45" stroke-width="2" stroke-linecap="round" stroke-linejoin="round"/>
</svg>
