<svg width="20" height="31" viewBox="0 0 20 31" fill="none" xmlns="http://www.w3.org/2000/svg">
<path d="M9.99936 21.8605C6.92088 21.8605 4.41797 19.403 4.41797 16.3804V5.4801C4.41797 2.45748 6.92088 0 9.99936 0C13.0779 0 15.5808 2.45748 15.5808 5.4801V16.3804C15.5808 19.403 13.0779 21.8605 9.99936 21.8605ZM9.99936 1.71253C7.88454 1.71253 6.16216 3.40366 6.16216 5.4801V16.3804C6.16216 18.4568 7.88454 20.1479 9.99936 20.1479C12.1142 20.1479 13.8366 18.4568 13.8366 16.3804V5.4801C13.8366 3.40366 12.1142 1.71253 9.99936 1.71253Z" fill="#172A39"/>
<path d="M10.8613 28.5032V25.5579C13.2084 25.3595 15.3876 24.3461 17.0715 22.6599C18.9621 20.7668 20 18.2526 20 15.5789V11.7927C20 11.3183 19.6124 10.9302 19.1387 10.9302C18.6649 10.9302 18.2773 11.3183 18.2773 11.7927V15.5789C18.2773 20.1501 14.565 23.8674 10 23.8674C5.43497 23.8674 1.72265 20.1501 1.72265 15.5789V11.7927C1.72265 11.3183 1.33506 10.9302 0.861326 10.9302C0.387596 10.9302 0 11.3183 0 11.7927V15.5833C0 18.257 1.0379 20.7711 2.92851 22.6642C4.6124 24.3504 6.79156 25.3595 9.13867 25.5622V28.5075H5.34884C4.87511 28.5075 4.48751 28.8957 4.48751 29.37C4.48751 29.8444 4.87511 30.2325 5.34884 30.2325H14.6512C15.1249 30.2325 15.5125 29.8444 15.5125 29.37C15.5125 28.8957 15.1249 28.5075 14.6512 28.5075" fill="#172A39"/>
</svg>
