<svg width="35" height="35" viewBox="0 0 35 35" fill="none" xmlns="http://www.w3.org/2000/svg">
<path d="M4.375 8.74984H7.29167M7.29167 8.74984H30.625M7.29167 8.74984V29.1665C7.29167 29.9401 7.59896 30.6819 8.14594 31.2289C8.69292 31.7759 9.43479 32.0832 10.2083 32.0832H24.7917C25.5652 32.0832 26.3071 31.7759 26.8541 31.2289C27.401 30.6819 27.7083 29.9401 27.7083 29.1665V8.74984M11.6667 8.74984V5.83317C11.6667 5.05962 11.974 4.31776 12.5209 3.77078C13.0679 3.22379 13.8098 2.9165 14.5833 2.9165H20.4167C21.1902 2.9165 21.9321 3.22379 22.4791 3.77078C23.026 4.31776 23.3333 5.05962 23.3333 5.83317V8.74984" stroke="#FA5F45" stroke-width="2" stroke-linecap="round" stroke-linejoin="round"/>
</svg>
