<svg width="22" height="29" viewBox="0 0 22 29" fill="none" xmlns="http://www.w3.org/2000/svg">
<path d="M17.6 8.7C18.767 8.7 19.8861 9.1583 20.7113 9.97409C21.5364 10.7899 22 11.8963 22 13.05V24.65C22 25.8037 21.5364 26.9101 20.7113 27.7259C19.8861 28.5417 18.767 29 17.6 29H4.4C3.23305 29 2.11389 28.5417 1.28873 27.7259C0.46357 26.9101 0 25.8037 0 24.65V13.05C0 11.8963 0.46357 10.7899 1.28873 9.97409C2.11389 9.1583 3.23305 8.7 4.4 8.7V6.525C4.4 2.9 7.33333 0 11 0C14.6667 0 17.6 2.9 17.6 6.525V8.7ZM4.4 10.15C3.62203 10.15 2.87593 10.4555 2.32582 10.9994C1.77571 11.5432 1.46667 12.2809 1.46667 13.05V24.65C1.46667 25.4191 1.77571 26.1568 2.32582 26.7006C2.87593 27.2445 3.62203 27.55 4.4 27.55H17.6C18.378 27.55 19.1241 27.2445 19.6742 26.7006C20.2243 26.1568 20.5333 25.4191 20.5333 24.65V13.05C20.5333 12.2809 20.2243 11.5432 19.6742 10.9994C19.1241 10.4555 18.378 10.15 17.6 10.15H4.4ZM16.1333 8.7V6.525C16.1333 5.17903 15.5925 3.88818 14.6298 2.93643C13.6671 1.98469 12.3614 1.45 11 1.45C9.63856 1.45 8.33287 1.98469 7.37019 2.93643C6.4075 3.88818 5.86667 5.17903 5.86667 6.525V8.7H16.1333Z" fill="#707579"/>
</svg>
